<?xml version="1.0" encoding="iso-8859-1"?>
<!-- Generator: Adobe Illustrator 19.0.0, SVG Export Plug-In . SVG Version: 6.00 Build 0)  -->
<svg xmlns="http://www.w3.org/2000/svg" xmlns:xlink="http://www.w3.org/1999/xlink" version="1.1" id="Capa_1" x="0px" y="0px" viewBox="0 0 488 488" style="enable-background:new 0 0 488 488;" xml:space="preserve" width="512px" height="512px">
<g>
	<g>
		<path d="M456,152c-13.232,0-24,10.768-24,24v11.608l-72,45.816V168c0-22.056-17.944-40-40-40h-26.848    C309.504,114.792,320,94.608,320,72c0-39.704-32.304-72-72-72c-27.864,0-52.04,15.944-64,39.168C172.04,15.944,147.864,0,120,0    C80.304,0,48,32.296,48,72c0,22.608,10.496,42.792,26.848,56H48c-22.056,0-40,17.944-40,40v224c0,22.056,17.944,40,40,40h120    v4.688l-37.656,37.656l11.312,11.312L168,459.312V488h16v-28.688l26.344,26.344l11.312-11.312L184,436.688V432h136    c22.056,0,40-17.944,40-40v-65.424l72,45.816V384c0,13.232,10.768,24,24,24s24-10.768,24-24V176C480,162.768,469.232,152,456,152z     M248,16c30.88,0,56,25.128,56,56s-25.12,56-56,56s-56-25.128-56-56S217.12,16,248,16z M184.008,104.832    c4.616,8.984,11.04,16.872,18.84,23.168H165.16C172.952,121.704,179.376,113.816,184.008,104.832z M64,72c0-30.872,25.12-56,56-56    s56,25.128,56,56s-25.12,56-56,56S64,102.872,64,72z M344,248v64v80c0,13.232-10.768,24-24,24H48c-13.232,0-24-10.768-24-24V168    c0-13.232,10.768-24,24-24h272c13.232,0,24,10.768,24,24V248z M432,353.424l-72-45.816v-55.216l72-45.824V353.424z M464,384    c0,4.416-3.592,8-8,8c-4.408,0-8-3.584-8-8v-16V192v-16c0-4.416,3.592-8,8-8c4.408,0,8,3.584,8,8V384z" fill="#ff6347"/>
	</g>
</g>
<g>
	<g>
		<rect x="240" y="32" width="16" height="16" fill="#ff6347"/>
	</g>
</g>
<g>
	<g>
		<rect x="240" y="96" width="16" height="16" fill="#ff6347"/>
	</g>
</g>
<g>
	<g>
		<rect x="272" y="64" width="16" height="16" fill="#ff6347"/>
	</g>
</g>
<g>
	<g>
		<rect x="208" y="64" width="16" height="16" fill="#ff6347"/>
	</g>
</g>
<g>
	<g>
		<rect x="112" y="32" width="16" height="16" fill="#ff6347"/>
	</g>
</g>
<g>
	<g>
		<rect x="112" y="96" width="16" height="16" fill="#ff6347"/>
	</g>
</g>
<g>
	<g>
		<rect x="144" y="64" width="16" height="16" fill="#ff6347"/>
	</g>
</g>
<g>
	<g>
		<rect x="80" y="64" width="16" height="16" fill="#ff6347"/>
	</g>
</g>
<g>
	<g>
		<path d="M176,184c-52.936,0-96,43.064-96,96c0,52.936,43.064,96,96,96c52.936,0,96-43.064,96-96C272,227.064,228.936,184,176,184z     M176,360c-44.112,0-80-35.888-80-80s35.888-80,80-80s80,35.888,80,80S220.112,360,176,360z" fill="#ff6347"/>
	</g>
</g>
<g>
	<g>
		<path d="M227.248,272.688l-72-32c-2.472-1.096-5.336-0.856-7.608,0.6c-2.272,1.48-3.64,4-3.64,6.712v64    c0,2.712,1.368,5.232,3.64,6.712c1.32,0.848,2.84,1.288,4.36,1.288c1.104,0,2.208-0.224,3.248-0.688l72-32    c2.888-1.288,4.752-4.144,4.752-7.312C232,276.832,230.136,273.976,227.248,272.688z M160,299.688v-39.376L204.304,280    L160,299.688z" fill="#ff6347"/>
	</g>
</g>
<g>
	<g>
		<rect x="312" y="384" width="16" height="16" fill="#ff6347"/>
	</g>
</g>
<g>
	<g>
		<rect x="280" y="384" width="16" height="16" fill="#ff6347"/>
	</g>
</g>
<g>
	<g>
		<rect x="248" y="384" width="16" height="16" fill="#ff6347"/>
	</g>
</g>
<g>
</g>
<g>
</g>
<g>
</g>
<g>
</g>
<g>
</g>
<g>
</g>
<g>
</g>
<g>
</g>
<g>
</g>
<g>
</g>
<g>
</g>
<g>
</g>
<g>
</g>
<g>
</g>
<g>
</g>
</svg>
