<?xml version="1.0" encoding="iso-8859-1"?>
<!-- Generator: Adobe Illustrator 19.0.0, SVG Export Plug-In . SVG Version: 6.00 Build 0)  -->
<svg xmlns="http://www.w3.org/2000/svg" xmlns:xlink="http://www.w3.org/1999/xlink" version="1.1" id="Capa_1" x="0px" y="0px" viewBox="0 0 480 480" style="enable-background:new 0 0 480 480;" xml:space="preserve" width="512px" height="512px">
<g>
	<g>
		<path d="M448,4H32C14.327,4,0,18.327,0,36v408c0,17.673,14.327,32,32,32h416c17.673,0,32-14.327,32-32V36    C480,18.327,465.673,4,448,4z M464,444c0,8.837-7.163,16-16,16H32c-8.837,0-16-7.163-16-16V84h448V444z M464,68H16V36    c0-8.837,7.163-16,16-16h416c8.837,0,16,7.163,16,16V68z" fill="#ff6347"/>
	</g>
</g>
<g>
	<g>
		<path d="M208,108H48c-4.418,0-8,3.582-8,8v128c0,4.418,3.582,8,8,8h160c4.418,0,8-3.582,8-8V116C216,111.582,212.418,108,208,108z     M200,236H56V124h144V236z" fill="#ff6347"/>
	</g>
</g>
<g>
	<g>
		<path d="M183.439,177.039c-0.813-2.041-2.43-3.658-4.471-4.471l-80-32c-4.103-1.639-8.758,0.358-10.397,4.461    C88.193,145.974,88,146.982,88,148v64c0,2.654,1.315,5.135,3.512,6.624c1.326,0.894,2.889,1.373,4.488,1.376    c1.017,0.003,2.024-0.19,2.968-0.568l80-32C183.073,185.797,185.074,181.144,183.439,177.039z M104,200.184v-40.368L154.464,180    L104,200.184z" fill="#ff6347"/>
	</g>
</g>
<g>
	<g>
		<rect x="336" y="148" width="104" height="16" fill="#ff6347"/>
	</g>
</g>
<g>
	<g>
		<rect x="368" y="116" width="72" height="16" fill="#ff6347"/>
	</g>
</g>
<g>
	<g>
		<path d="M304,108h-48c-4.418,0-8,3.582-8,8v48c0,4.418,3.582,8,8,8h48c4.418,0,8-3.582,8-8v-48C312,111.582,308.418,108,304,108z     M296,156h-32v-32h32V156z" fill="#ff6347"/>
	</g>
</g>
<g>
	<g>
		<rect x="336" y="236" width="104" height="16" fill="#ff6347"/>
	</g>
</g>
<g>
	<g>
		<rect x="368" y="204" width="72" height="16" fill="#ff6347"/>
	</g>
</g>
<g>
	<g>
		<path d="M304,196h-48c-4.418,0-8,3.582-8,8v48c0,4.418,3.582,8,8,8h48c4.418,0,8-3.582,8-8v-48C312,199.582,308.418,196,304,196z     M296,244h-32v-32h32V244z" fill="#ff6347"/>
	</g>
</g>
<g>
	<g>
		<rect x="336" y="324" width="104" height="16" fill="#ff6347"/>
	</g>
</g>
<g>
	<g>
		<rect x="368" y="292" width="72" height="16" fill="#ff6347"/>
	</g>
</g>
<g>
	<g>
		<path d="M304,284h-48c-4.418,0-8,3.582-8,8v48c0,4.418,3.582,8,8,8h48c4.418,0,8-3.582,8-8v-48C312,287.582,308.418,284,304,284z     M296,332h-32v-32h32V332z" fill="#ff6347"/>
	</g>
</g>
<g>
	<g>
		<rect x="336" y="412" width="104" height="16" fill="#ff6347"/>
	</g>
</g>
<g>
	<g>
		<rect x="368" y="380" width="72" height="16" fill="#ff6347"/>
	</g>
</g>
<g>
	<g>
		<path d="M304,372h-48c-4.418,0-8,3.582-8,8v48c0,4.418,3.582,8,8,8h48c4.418,0,8-3.582,8-8v-48C312,375.582,308.418,372,304,372z     M296,420h-32v-32h32V420z" fill="#ff6347"/>
	</g>
</g>
<g>
	<g>
		<rect x="48" y="324" width="160" height="16" fill="#ff6347"/>
	</g>
</g>
<g>
	<g>
		<rect x="48" y="356" width="160" height="16" fill="#ff6347"/>
	</g>
</g>
<g>
	<g>
		<rect x="48" y="388" width="128" height="16" fill="#ff6347"/>
	</g>
</g>
<g>
	<g>
		<rect x="112" y="292" width="96" height="16" fill="#ff6347"/>
	</g>
</g>
<g>
	<g>
		<rect x="80" y="292" width="16" height="16" fill="#ff6347"/>
	</g>
</g>
<g>
	<g>
		<rect x="32" y="36" width="16" height="16" fill="#ff6347"/>
	</g>
</g>
<g>
	<g>
		<rect x="64" y="36" width="16" height="16" fill="#ff6347"/>
	</g>
</g>
<g>
	<g>
		<rect x="96" y="36" width="16" height="16" fill="#ff6347"/>
	</g>
</g>
<g>
	<g>
		<rect x="336" y="116" width="16" height="16" fill="#ff6347"/>
	</g>
</g>
<g>
	<g>
		<rect x="336" y="204" width="16" height="16" fill="#ff6347"/>
	</g>
</g>
<g>
	<g>
		<rect x="336" y="292" width="16" height="16" fill="#ff6347"/>
	</g>
</g>
<g>
	<g>
		<rect x="336" y="380" width="16" height="16" fill="#ff6347"/>
	</g>
</g>
<g>
</g>
<g>
</g>
<g>
</g>
<g>
</g>
<g>
</g>
<g>
</g>
<g>
</g>
<g>
</g>
<g>
</g>
<g>
</g>
<g>
</g>
<g>
</g>
<g>
</g>
<g>
</g>
<g>
</g>
</svg>
