<?xml version="1.0"?>
<svg xmlns="http://www.w3.org/2000/svg" xmlns:xlink="http://www.w3.org/1999/xlink" version="1.1" id="Layer_1" x="0px" y="0px" viewBox="0 0 495.988 495.988" style="enable-background:new 0 0 495.988 495.988;" xml:space="preserve" width="512px" height="512px" class=""><g><path d="M401.752,0.788l-383.2,139.2c-7.2,3.2-11.2,11.2-8,18.4l27.2,71.2l409.6-149.6l-27.2-71.2  C417.752,1.588,408.952-1.612,401.752,0.788z" data-original="#000000" class="active-path" style="fill:#FF9B00" data-old_color="#FFAA00"/><g>
	<polygon style="fill:#FF9B00" points="20.952,139.188 11.352,161.588 37.752,229.588 42.552,227.988 93.752,112.788  " data-original="#576063" class="" data-old_color="#FF9300"/>
	<polygon style="fill:#FF9B00" points="96.952,207.988 169.752,181.588 220.152,67.188 148.152,92.788  " data-original="#576063" class="" data-old_color="#FF9300"/>
	<polygon style="fill:#FF9B00" points="223.352,161.588 300.152,134.388 351.352,19.188 279.352,45.588  " data-original="#576063" class="" data-old_color="#FF9300"/>
	<path style="fill:#FF9B00" d="M427.352,87.988l12.8-28l-19.2-50.4c-2.4-6.4-8-9.6-14.4-8.8l-50.4,113.6L427.352,87.988z" data-original="#576063" class="" data-old_color="#FF9300"/>
	<path style="fill:#FF9B00" d="M486.552,481.588c0,8-9.6,14.4-17.6,14.4h-418.4c-8,0-12-6.4-12-14.4v-254.4c0-8,4-11.2,12-11.2   h418.4c8,0,17.6,3.2,17.6,11.2V481.588z" data-original="#576063" class="" data-old_color="#FF9300"/>
</g><path style="fill:#FF8400" d="M38.552,230.388c0-8,4-14.4,12-14.4h418.4c8,0,17.6,3.2,17.6,11.2v254.4c0,8-9.6,14.4-17.6,14.4" data-original="#333B3D" class="" data-old_color="#FF8C00"/><path d="M468.952,215.988h-418.4c-8,0-12,3.2-12,11.2v76.8h448v-76.8C486.552,219.188,476.952,215.988,468.952,215.988z" data-original="#000000" class="active-path" style="fill:#FF9B00" data-old_color="#FFAA00"/><g>
	<path style="fill:#F3EFF3" d="M381.752,351.988h-244c-2.4,0-4-1.6-4-4c0-1.6,1.6-4,4-4h244c2.4,0,4,1.6,4,4   C384.952,350.388,383.352,351.988,381.752,351.988z" data-original="#9DA6A8" class="" data-old_color="#FD00FE"/>
	<path style="fill:#F3EFF3" d="M381.752,391.988h-244c-2.4,0-4-1.6-4-4c0-1.6,1.6-4,4-4h244c2.4,0,4,1.6,4,4   C384.952,390.388,383.352,391.988,381.752,391.988z" data-original="#9DA6A8" class="" data-old_color="#FD00FE"/>
	<path style="fill:#F3EFF3" d="M381.752,431.988h-244c-2.4,0-4-1.6-4-4s1.6-4,4-4h244c2.4,0,4,1.6,4,4   C384.952,430.388,383.352,431.988,381.752,431.988z" data-original="#9DA6A8" class="" data-old_color="#FD00FE"/>
</g></g> </svg>
