<?xml version="1.0"?>
<svg xmlns="http://www.w3.org/2000/svg" xmlns:xlink="http://www.w3.org/1999/xlink" version="1.1" id="Capa_1" x="0px" y="0px" viewBox="0 0 512 512" style="enable-background:new 0 0 512 512;" xml:space="preserve" width="512px" height="512px" class=""><g><g>
	<g>
		<path d="M470.271,348.031c-2.292-7.031-5.146-16.958-8.417-28.313c-13.574-47.039-26.074-87.919-39.493-108.107    C473.059,203.391,512,159.648,512,106.667C512,47.854,464.146,0,405.333,0S298.667,47.854,298.667,106.667    c0,5.319,0.815,10.419,1.57,15.531l-59.115,68.047c-3.379-1.586-6.75-2.783-10.06-3.464c-10.188-2.135-18.917,0.313-25.688,6.896    c-13.799,13.41-15.492,31.924-11.126,50.531L98.188,354.813c-8.292,9.344-12.854,21.354-12.854,33.833    c0,12.608,4.724,24.413,13.063,33.78c-7.635,13.556-19.691,22.415-36.479,25.783C0.708,460.448,0,499.667,0,501.333    c0,5.792,4.625,10.396,10.417,10.531c0.083,0,0.167,0.01,0.25,0.01c5.688,0,10.396-4.604,10.667-10.313    c0.042-0.969,1.583-23.802,44.75-32.438c24.793-4.96,39.559-18.044,48.318-31.242C122.924,444.336,133.147,448,144,448    c13.146,0,25.521-5.125,34.854-14.438l65.586-65.586c1.072,12.518,4.458,26.777,21.664,49.753    c11.125,14.854,25.604,23.365,40.917,32.375c20.958,12.333,42.625,25.083,61.5,56.698c1.938,3.229,5.417,5.198,9.167,5.198    c98.208,0,133.229-85.885,133.563-86.75c1.417-3.573,0.792-7.625-1.604-10.615C509.333,414.271,479.833,377.49,470.271,348.031z     M405.333,21.333c47.063,0,85.333,38.281,85.333,85.333c0,19.682-6.969,37.602-18.204,52.055L353.283,39.534    C367.733,28.301,385.651,21.333,405.333,21.333z M338.199,54.617l119.18,119.188C442.93,185.035,425.013,192,405.333,192    C358.271,192,320,153.719,320,106.667C320,86.987,326.966,69.069,338.199,54.617z M306.779,147.23    c12.068,29.206,36.871,51.486,67.333,60.898l-66.15,66.158c-5.039-8.951-9.552-18.385-13.15-27.057    c-4.917-11.799-19.216-31.255-35.76-45.063L306.779,147.23z M344.792,289.781c-1.208,2.115-2.25,4.417-3.313,6.781    c-1.813,4.01-3.792,8.396-6.521,11.823c-5.099-3.553-10.223-9.163-15.159-15.77l19.184-19.185    C340.84,279.026,342.908,284.999,344.792,289.781z M163.771,418.469c-10.583,10.583-28.958,10.583-39.542,0l-5.077-5.072    c-0.027-0.029-0.056-0.053-0.083-0.082l-3.715-3.711c-5.604-5.615-8.688-13.052-8.688-20.958c0-7.25,2.667-14.24,7.563-19.76    l88.294-101.642c3.487,7.171,7.512,14.076,11.914,20.267c12.578,17.732,22.289,37.773,26.595,53.707L163.771,418.469z     M383.542,490.552c-21-32.521-45.688-47.042-65.708-58.833c-14-8.24-26.083-15.354-34.646-26.781    c-16.833-22.469-17.313-32.667-17.938-45.583c-0.146-2.938-0.292-5.917-0.583-9.063c-2-20.375-14.896-49.875-32.854-75.135    c-15.667-22.063-25.979-52.188-11.583-66.167c1.188-1.135,2.729-2.083,6.521-1.313c16.063,3.302,41.875,32.198,48.354,47.75    c7.917,19.021,29.313,64.5,57.396,75.802c3.167,1.313,6.854,0.948,9.771-0.938c10.417-6.75,15.188-17.271,18.646-24.948    c0.958-2.135,2.292-5.052,2.104-5.156c4.5-3.021,6.021-8.927,3.542-13.74c-2.333-4.543-7.148-18.905-10.631-29.966l40.738-40.743    c2.078,1.297,3.732,2.508,4.497,3.251c13.104,12.719,30.063,71.51,40.188,106.635c3.354,11.635,6.271,21.802,8.625,29.01    c8.583,26.375,29.938,56.208,38.958,68.125C480.583,439.302,450.417,487.854,383.542,490.552z" data-original="#000000" class="active-path" data-old_color="#FF8400" fill="#FF8C00"/>
	</g>
</g></g> </svg>
