<?xml version="1.0"?>
<svg xmlns="http://www.w3.org/2000/svg" xmlns:xlink="http://www.w3.org/1999/xlink" version="1.1" id="Capa_1" x="0px" y="0px" viewBox="0 0 512 512" style="enable-background:new 0 0 512 512;" xml:space="preserve" width="512px" height="512px" class=""><g><g>
	<g>
		<path d="M501.961,44.825H10.039C4.496,44.825,0,49.321,0,54.864v334.697c0,5.544,4.496,10.039,10.039,10.039h184.722v47.496    h-38.149c-5.544,0-10.039,4.496-10.039,10.039c0,5.544,4.496,10.039,10.039,10.039h198.776c5.544,0,10.039-4.496,10.039-10.039    c0-5.544-4.496-10.039-10.039-10.039h-38.149v-47.496h184.722c5.544,0,10.039-4.496,10.039-10.039V54.864    C512,49.321,507.504,44.825,501.961,44.825z M297.161,447.096h-82.322v-47.496h82.322V447.096z M491.922,379.522H307.2H204.8    H20.078V322.61h471.843V379.522z M491.922,302.532H20.078V64.904h471.843V302.532z" data-original="#000000" class="active-path" data-old_color="#FFA300" fill="#FF9B00"/>
	</g>
</g><g>
	<g>
		<path d="M279.763,340.681h-47.526c-5.544,0-10.039,4.496-10.039,10.039s4.496,10.039,10.039,10.039h47.526    c5.544,0,10.039-4.496,10.039-10.039S285.306,340.681,279.763,340.681z" data-original="#000000" class="active-path" data-old_color="#FFA300" fill="#FF9B00"/>
	</g>
</g><g>
	<g>
		<path d="M380.375,195.765c5.544,0,10.039-4.496,10.039-10.039c0-5.544-4.496-10.039-10.039-10.039h-25.79V158.64h25.79    c5.544,0,10.039-4.496,10.039-10.039c0-5.544-4.496-10.039-10.039-10.039h-35.829c-5.544,0-10.039,4.496-10.039,10.039v74.251    c0,5.544,4.496,10.038,10.039,10.038h35.829c5.544,0,10.039-4.496,10.039-10.039s-4.496-10.039-10.039-10.039h-25.79v-17.047    H380.375z" data-original="#000000" class="active-path" data-old_color="#FFA300" fill="#FF9B00"/>
	</g>
</g><g>
	<g>
		<path d="M170.948,212.811h-25.791V148.6c0-5.544-4.496-10.039-10.039-10.039s-10.039,4.496-10.039,10.039v74.251    c0,5.544,4.495,10.038,10.039,10.038h35.83c5.544,0,10.039-4.496,10.039-10.039S176.491,212.811,170.948,212.811z" data-original="#000000" class="active-path" data-old_color="#FFA300" fill="#FF9B00"/>
	</g>
</g><g>
	<g>
		<path d="M240.749,212.811h-7.871V158.64h7.871c5.544,0,10.039-4.496,10.039-10.039c0-5.544-4.496-10.039-10.039-10.039H204.92    c-5.544,0-10.039,4.496-10.039,10.039c0,5.544,4.496,10.039,10.039,10.039h7.881v54.173h-7.881v-0.001    c-5.544,0-10.039,4.496-10.039,10.039s4.496,10.039,10.039,10.039h35.829c5.544,0,10.039-4.496,10.039-10.039    S246.293,212.811,240.749,212.811z" data-original="#000000" class="active-path" data-old_color="#FFA300" fill="#FF9B00"/>
	</g>
</g><g>
	<g>
		<path d="M312.917,138.84c-5.393-1.298-10.813,2.016-12.113,7.406l-8.153,33.801l-8.158-33.802    c-1.301-5.39-6.72-8.704-12.113-7.404c-5.39,1.301-8.705,6.724-7.404,12.113l17.918,74.251c1.088,4.509,5.122,7.684,9.76,7.684    c4.637,0,8.671-3.177,9.759-7.685l17.91-74.251C321.623,145.564,318.307,140.14,312.917,138.84z" data-original="#000000" class="active-path" data-old_color="#FFA300" fill="#FF9B00"/>
	</g>
</g><g>
	<g>
		<path d="M405.042,101.997H106.958c-22.226,0-40.307,18.078-40.307,40.298v86.859c0,22.225,18.082,40.307,40.307,40.307h298.084    c22.226,0,40.307-18.083,40.307-40.307v-86.859C445.35,120.075,427.267,101.997,405.042,101.997z M425.271,229.155    c0,11.155-9.074,20.229-20.229,20.229H106.958c-11.155,0-20.229-9.074-20.229-20.229v-86.859c0-11.148,9.074-20.22,20.229-20.22    h298.084c11.155,0,20.229,9.07,20.229,20.22V229.155z" data-original="#000000" class="active-path" data-old_color="#FFA300" fill="#FF9B00"/>
	</g>
</g><g>
	<g>
		<path d="M471.341,187.679c-5.544,0-10.039,4.496-10.039,10.039v75.76c0,5.545,4.496,10.039,10.039,10.039    c5.544,0,10.039-4.496,10.039-10.039v-75.76C481.38,192.175,476.885,187.679,471.341,187.679z" data-original="#000000" class="active-path" data-old_color="#FFA300" fill="#FF9B00"/>
	</g>
</g><g>
	<g>
		<path d="M471.321,160.909c-12.919,0-12.941,20.078,0,20.078C484.241,180.987,484.262,160.909,471.321,160.909z" data-original="#000000" class="active-path" data-old_color="#FFA300" fill="#FF9B00"/>
	</g>
</g></g> </svg>
