<?xml version="1.0" encoding="iso-8859-1"?>
<!-- Generator: Adobe Illustrator 19.0.0, SVG Export Plug-In . SVG Version: 6.00 Build 0)  -->
<svg xmlns="http://www.w3.org/2000/svg" xmlns:xlink="http://www.w3.org/1999/xlink" version="1.1" id="Capa_1" x="0px" y="0px" viewBox="0 0 480 480" style="enable-background:new 0 0 480 480;" xml:space="preserve" width="512px" height="512px">
<g>
	<g>
		<path d="M440,0H40c-4.418,0-8,3.582-8,8v464c0,4.418,3.582,8,8,8h400c4.418,0,8-3.582,8-8V8C448,3.582,444.418,0,440,0z M144,16    h192v80c0,13.255-10.745,24-24,24H168c-13.255,0-24-10.745-24-24V16z M96,464H80v-16H64v16H48V16h48V464z M336,464H144v-80    c0-13.255,10.745-24,24-24h144c13.255,0,24,10.745,24,24V464z M368,464h-16v-80c-0.026-22.08-17.92-39.974-40-40H168    c-22.08,0.026-39.974,17.92-40,40v80h-16V16h16v80c0.026,22.08,17.92,39.974,40,40h144c22.08-0.026,39.974-17.92,40-40V16h16V464z     M432,464h-16v-16h-16v16h-16V16h48V464z" fill="#ff6347"/>
	</g>
</g>
<g>
	<g>
		<rect x="64" y="32" width="16" height="16" fill="#ff6347"/>
	</g>
</g>
<g>
	<g>
		<rect x="64" y="64" width="16" height="16" fill="#ff6347"/>
	</g>
</g>
<g>
	<g>
		<rect x="64" y="96" width="16" height="16" fill="#ff6347"/>
	</g>
</g>
<g>
	<g>
		<rect x="64" y="128" width="16" height="16" fill="#ff6347"/>
	</g>
</g>
<g>
	<g>
		<rect x="64" y="160" width="16" height="16" fill="#ff6347"/>
	</g>
</g>
<g>
	<g>
		<rect x="64" y="192" width="16" height="16" fill="#ff6347"/>
	</g>
</g>
<g>
	<g>
		<rect x="64" y="224" width="16" height="16" fill="#ff6347"/>
	</g>
</g>
<g>
	<g>
		<rect x="64" y="256" width="16" height="16" fill="#ff6347"/>
	</g>
</g>
<g>
	<g>
		<rect x="64" y="288" width="16" height="16" fill="#ff6347"/>
	</g>
</g>
<g>
	<g>
		<rect x="64" y="320" width="16" height="16" fill="#ff6347"/>
	</g>
</g>
<g>
	<g>
		<rect x="64" y="352" width="16" height="16" fill="#ff6347"/>
	</g>
</g>
<g>
	<g>
		<rect x="64" y="384" width="16" height="16" fill="#ff6347"/>
	</g>
</g>
<g>
	<g>
		<rect x="64" y="416" width="16" height="16" fill="#ff6347"/>
	</g>
</g>
<g>
	<g>
		<rect x="400" y="32" width="16" height="16" fill="#ff6347"/>
	</g>
</g>
<g>
	<g>
		<rect x="400" y="64" width="16" height="16" fill="#ff6347"/>
	</g>
</g>
<g>
	<g>
		<rect x="400" y="96" width="16" height="16" fill="#ff6347"/>
	</g>
</g>
<g>
	<g>
		<rect x="400" y="128" width="16" height="16" fill="#ff6347"/>
	</g>
</g>
<g>
	<g>
		<rect x="400" y="160" width="16" height="16" fill="#ff6347"/>
	</g>
</g>
<g>
	<g>
		<rect x="400" y="192" width="16" height="16" fill="#ff6347"/>
	</g>
</g>
<g>
	<g>
		<rect x="400" y="224" width="16" height="16" fill="#ff6347"/>
	</g>
</g>
<g>
	<g>
		<rect x="400" y="256" width="16" height="16" fill="#ff6347"/>
	</g>
</g>
<g>
	<g>
		<rect x="400" y="288" width="16" height="16" fill="#ff6347"/>
	</g>
</g>
<g>
	<g>
		<rect x="400" y="320" width="16" height="16" fill="#ff6347"/>
	</g>
</g>
<g>
	<g>
		<rect x="400" y="352" width="16" height="16" fill="#ff6347"/>
	</g>
</g>
<g>
	<g>
		<rect x="400" y="384" width="16" height="16" fill="#ff6347"/>
	</g>
</g>
<g>
	<g>
		<rect x="400" y="416" width="16" height="16" fill="#ff6347"/>
	</g>
</g>
<g>
	<g>
		<path d="M312,152H168c-22.08,0.026-39.974,17.92-40,40v96c0.026,22.08,17.92,39.974,40,40h144c22.08-0.026,39.974-17.92,40-40v-96    C351.974,169.92,334.08,152.026,312,152z M336,288c0,13.255-10.745,24-24,24H168c-13.255,0-24-10.745-24-24v-96    c0-13.255,10.745-24,24-24h144c13.255,0,24,10.745,24,24V288z" fill="#ff6347"/>
	</g>
</g>
<g>
	<g>
		<path d="M278.971,236.027c-0.708-1.238-1.734-2.263-2.971-2.971l-56-32c-3.826-2.209-8.719-0.898-10.928,2.928    c-0.705,1.221-1.075,2.606-1.072,4.016v64c-0.009,4.418,3.566,8.007,7.984,8.016c1.41,0.003,2.795-0.367,4.016-1.072l56-32    C279.835,244.75,281.165,239.863,278.971,236.027z M224,258.216v-36.432L255.872,240L224,258.216z" fill="#ff6347"/>
	</g>
</g>
<g>
</g>
<g>
</g>
<g>
</g>
<g>
</g>
<g>
</g>
<g>
</g>
<g>
</g>
<g>
</g>
<g>
</g>
<g>
</g>
<g>
</g>
<g>
</g>
<g>
</g>
<g>
</g>
<g>
</g>
</svg>
