<?xml version="1.0"?>
<svg xmlns="http://www.w3.org/2000/svg" xmlns:xlink="http://www.w3.org/1999/xlink" version="1.1" id="Capa_1" x="0px" y="0px" viewBox="0 0 512 512" style="enable-background:new 0 0 512 512;" xml:space="preserve" width="512px" height="512px" class=""><g><g>
	<g>
		<g>
			<path d="M383.403,460.096c-5.12,2.965-6.848,9.493-3.883,14.592c1.024,1.749,1.856,3.52,2.517,5.312H108.501     c4.395-12.416,16.256-21.333,30.165-21.333h108.544c5.888,0,10.667-4.779,10.667-10.667c0-5.888-4.779-10.667-10.667-10.667     h-12.544v-23.04c3.051-1.877,5.205-5.099,5.205-8.96c0-5.888-4.779-10.667-10.667-10.667H53.333c-17.643,0-32-14.357-32-32V352     H224c5.888,0,10.667-4.779,10.667-10.667c0-5.888-4.779-10.667-10.667-10.667H21.333V64c0-17.643,14.357-32,32-32h384     c17.643,0,32,14.357,32,32v170.667c0,5.888,4.779,10.667,10.667,10.667c5.888,0,10.667-4.779,10.667-10.667V64     c0-29.397-23.915-53.333-53.333-53.333h-384C23.915,10.667,0,34.603,0,64v298.667C0,392.064,23.915,416,53.333,416h160v21.333     h-74.667c-29.419,0-53.333,23.936-53.333,53.333c0,5.888,4.779,10.667,10.667,10.667h298.667c5.888,0,10.667-4.779,10.688-10.688     c0-9.301-2.475-18.283-7.36-26.688C394.987,458.837,388.437,457.131,383.403,460.096z" data-original="#000000" class="active-path" data-old_color="#FF8400" fill="#FF7C00"/>
			<path d="M416.427,352h-0.213c-5.888,0-10.56,4.779-10.56,10.667s4.907,10.667,10.773,10.667c5.888,0,10.667-4.779,10.667-10.667     S422.315,352,416.427,352z" data-original="#000000" class="active-path" data-old_color="#FF8400" fill="#FF7C00"/>
			<path d="M506.389,267.925c-3.456-1.856-7.68-1.643-10.965,0.533L448,300.075v-22.741c0-5.888-4.779-10.667-10.667-10.667H288     c-31.104,0-32,76.608-32,85.333s0.896,85.333,32,85.333h149.333c5.888,0,10.667-4.779,10.667-10.667v-22.741l47.424,31.616     c1.792,1.195,3.84,1.792,5.909,1.792c1.728,0,3.456-0.427,5.035-1.259c3.456-1.856,5.632-5.461,5.632-9.408V277.333     C512,273.387,509.845,269.781,506.389,267.925z M490.688,406.741l-47.424-31.616c-3.307-2.176-7.509-2.368-10.965-0.533     c-3.456,1.856-5.632,5.461-5.632,9.408v32.021l-136.747,0.448c-4.245-3.051-12.587-25.792-12.587-64.469     c0-38.677,8.341-61.419,10.667-64h138.667v32c0,3.947,2.176,7.552,5.632,9.408c3.456,1.856,7.68,1.643,10.965-0.533     l47.424-31.616V406.741z" data-original="#000000" class="active-path" data-old_color="#FF8400" fill="#FF7C00"/>
		</g>
	</g>
</g></g> </svg>
